<svg xmlns="http://www.w3.org/2000/svg" width="172" height="62" viewBox="0 0 172 62">
    <defs>
        <linearGradient id="a" x1="8.693%" x2="214.357%" y1="29.644%" y2="131.03%">
            <stop offset="0%" stop-color="#3DB28C"/>
            <stop offset="70%" stop-color="#475DA7"/>
        </linearGradient>
        <linearGradient id="b" x1="-53.662%" x2="148.827%" y1="5.315%" y2="106.707%">
            <stop offset="0%" stop-color="#3DB28C"/>
            <stop offset="70%" stop-color="#475DA7"/>
        </linearGradient>
        <linearGradient id="c" x1="-114.463%" x2="90.439%" y1="-25.251%" y2="76.134%">
            <stop offset="0%" stop-color="#3DB28C"/>
            <stop offset="70%" stop-color="#475DA7"/>
        </linearGradient>
    </defs>
    <g fill="none" fill-rule="nonzero">
        <path fill="#475DA7" d="M109.648.756h2.94V26.32c-.058 2.35.254 4.695.924 6.948a12.34 12.34 0 0 0 2.463 4.461 8.578 8.578 0 0 0 3.546 2.397c1.367.47 2.805.706 4.25.696 1.487.01 2.964-.226 4.373-.696a8.745 8.745 0 0 0 3.644-2.397c1.14-1.297 2-2.816 2.524-4.46a21.702 21.702 0 0 0 .954-6.98V.757h2.75v25.881a23.665 23.665 0 0 1-1.212 8.143 14.119 14.119 0 0 1-3.197 5.202 11.128 11.128 0 0 1-4.546 2.738 17.766 17.766 0 0 1-10.548 0 11.105 11.105 0 0 1-4.546-2.738 13.687 13.687 0 0 1-3.137-5.202 24.102 24.102 0 0 1-1.182-8.158V.756zM142.684.756h2.94V24.09h.121L166.128.756h3.516l-13.42 15.553 15.268 26.463h-3.387L154.18 18.577l-8.555 9.754v14.434h-2.94z"/>
        <path fill="#3C3C3B" d="M.106 50.401h1.41v4.726h5.303v-4.726h1.455v11.281H6.82V56.39H1.515v5.292H.106zM10.328 57.516c-.01-.629.097-1.255.318-1.845.19-.51.476-.979.84-1.383a3.712 3.712 0 0 1 1.198-.87c.9-.388 1.92-.388 2.819 0 .405.166.766.425 1.053.756.291.37.51.79.644 1.24.158.525.234 1.07.227 1.618 0 .253-.017.506-.053.757h-5.652a3.27 3.27 0 0 0 .833 2.147 2.564 2.564 0 0 0 1.955.756 3.31 3.31 0 0 0 1.114-.182c.341-.122.669-.28.977-.468l.493.922a6.825 6.825 0 0 1-1.22.605 4.22 4.22 0 0 1-1.515.257 4.008 4.008 0 0 1-1.576-.302 3.698 3.698 0 0 1-1.281-.855 3.992 3.992 0 0 1-.894-1.308 5.01 5.01 0 0 1-.28-1.845zm5.857-.635a3.088 3.088 0 0 0-.546-1.966 1.835 1.835 0 0 0-1.515-.68c-.3.005-.594.075-.864.204a2.5 2.5 0 0 0-.758.514c-.23.24-.414.52-.545.824-.15.36-.245.74-.28 1.127l4.508-.023zM18.579 59.512c-.032-.88.45-1.7 1.235-2.102a10.132 10.132 0 0 1 3.917-1.028c.001-.254-.024-.507-.075-.756a1.835 1.835 0 0 0-.28-.673 1.514 1.514 0 0 0-.523-.469 1.73 1.73 0 0 0-.842-.181 3.393 3.393 0 0 0-1.371.272 7.582 7.582 0 0 0-1.129.62l-.568-.99a8.34 8.34 0 0 1 1.432-.756 4.775 4.775 0 0 1 1.856-.356 2.602 2.602 0 0 1 2.228.938c.49.74.732 1.616.69 2.502v5.127h-1.175l-.121-.998h-.038c-.4.33-.835.616-1.296.854-.458.231-.964.35-1.477.348a2.557 2.557 0 0 1-1.766-.62 2.266 2.266 0 0 1-.697-1.732zm1.394-.098c-.037.392.122.776.425 1.028a1.73 1.73 0 0 0 1.045.31 2.36 2.36 0 0 0 1.144-.264 5.349 5.349 0 0 0 1.144-.832v-2.344c-.596.075-1.188.183-1.773.325-.406.1-.798.25-1.166.446a1.718 1.718 0 0 0-.63.598 1.51 1.51 0 0 0-.189.733zM27.558 49.441h1.41v10.661a.755.755 0 0 0 .12.477.372.372 0 0 0 .28.136h.13a.76.76 0 0 0 .181 0l.19 1.066c-.103.05-.213.085-.326.106a2.9 2.9 0 0 1-.485 0 1.327 1.327 0 0 1-1.16-.484 2.408 2.408 0 0 1-.34-1.407V49.441zM31.937 54.477h-1.242V53.41l1.31-.083.175-2.344h1.16v2.344h2.272v1.149H33.34v4.642c-.023.418.077.834.288 1.195.24.305.621.465 1.008.423a1.92 1.92 0 0 0 .485-.068c.169-.047.333-.108.492-.181l.273 1.066a7.077 7.077 0 0 1-.758.22c-.263.059-.533.09-.803.09a2.763 2.763 0 0 1-1.129-.204 1.932 1.932 0 0 1-.757-.567 2.175 2.175 0 0 1-.402-.877 4.867 4.867 0 0 1-.121-1.135l.022-4.604zM37.257 49.441h1.386v5.051c.384-.366.805-.69 1.258-.968a2.838 2.838 0 0 1 1.515-.408 2.275 2.275 0 0 1 1.94.824c.45.732.656 1.586.591 2.442v5.293h-1.394V56.57a3.02 3.02 0 0 0-.379-1.709 1.403 1.403 0 0 0-1.212-.521 2.049 2.049 0 0 0-1.152.325c-.42.28-.811.602-1.167.96v6.049h-1.386V49.44zM49.736 50.401h2.826a5.212 5.212 0 0 1 3.978 1.445 5.806 5.806 0 0 1 1.364 4.143c.02.81-.088 1.62-.318 2.397a4.897 4.897 0 0 1-1.023 1.792 4.44 4.44 0 0 1-1.652 1.119 6.142 6.142 0 0 1-2.273.385h-2.902v-11.28zm2.72 10.087a3.656 3.656 0 0 0 2.978-1.187 5.05 5.05 0 0 0 .985-3.335 4.854 4.854 0 0 0-.985-3.281 3.747 3.747 0 0 0-2.978-1.134h-1.288v8.937h1.288zM59.526 59.512a2.313 2.313 0 0 1 1.227-2.102 10.178 10.178 0 0 1 3.925-1.028 4.293 4.293 0 0 0-.076-.756 1.835 1.835 0 0 0-.28-.673 1.514 1.514 0 0 0-.523-.514 1.746 1.746 0 0 0-.849-.181 3.378 3.378 0 0 0-1.363.272c-.395.172-.772.38-1.13.62l-.598-.945c.45-.297.927-.55 1.425-.756a4.813 4.813 0 0 1 1.863-.356 2.579 2.579 0 0 1 2.22.938c.494.738.736 1.616.69 2.502v5.127h-1.136l-.122-.998a7.17 7.17 0 0 1-1.303.854 3.21 3.21 0 0 1-1.47.348 2.542 2.542 0 0 1-1.803-.62 2.198 2.198 0 0 1-.697-1.732zm1.394-.098c-.03.397.14.783.454 1.028.304.213.668.321 1.039.31.39.005.774-.086 1.12-.264.416-.228.8-.507 1.145-.832v-2.344c-.597.073-1.189.182-1.773.325-.406.1-.798.25-1.167.446-.259.14-.476.346-.629.598a1.45 1.45 0 0 0-.19.733zM68.747 54.477h-1.243V53.41l1.311-.083.167-2.344h1.19v2.344h2.273v1.149H70.17v4.642c-.02.419.082.834.296 1.195.24.305.621.465 1.008.423a1.92 1.92 0 0 0 .485-.068c.157-.041.312-.094.462-.159l.273 1.067a7.46 7.46 0 0 1-.758.219 3.568 3.568 0 0 1-.758.09 2.763 2.763 0 0 1-1.129-.204 1.932 1.932 0 0 1-.757-.567 2.266 2.266 0 0 1-.41-.877 5.327 5.327 0 0 1-.113-1.134l-.023-4.627zM73.346 59.512a2.313 2.313 0 0 1 1.228-2.102 10.178 10.178 0 0 1 3.925-1.028 4.293 4.293 0 0 0-.076-.756 1.835 1.835 0 0 0-.28-.673 1.514 1.514 0 0 0-.523-.469 1.746 1.746 0 0 0-.849-.181 3.378 3.378 0 0 0-1.364.272 7.196 7.196 0 0 0-1.151.62l-.569-.975c.45-.297.927-.55 1.425-.756a4.813 4.813 0 0 1 1.864-.356 2.579 2.579 0 0 1 2.22.938c.493.738.735 1.616.69 2.503v5.126h-1.168l-.12-.998h-.039a7.169 7.169 0 0 1-1.273.862 3.21 3.21 0 0 1-1.47.348 2.542 2.542 0 0 1-1.773-.643 2.198 2.198 0 0 1-.697-1.732zm1.394-.098c-.036.392.122.776.425 1.028.303.213.667.321 1.038.31.402.003.798-.096 1.152-.287.415-.227.8-.507 1.144-.832v-2.32c-.597.072-1.19.18-1.773.324-.406.1-.798.25-1.167.446-.26.14-.476.346-.63.598a1.45 1.45 0 0 0-.189.733zM91.887 61.682l-2.72-4.763h-2.03v4.763h-1.433v-11.28h3.531a7.107 7.107 0 0 1 1.6.166c.45.092.879.274 1.257.537.349.256.63.593.818.983.216.474.317.992.296 1.512a3.133 3.133 0 0 1-.69 2.117 3.472 3.472 0 0 1-1.849 1.081l2.865 4.922-1.645-.038zm-4.75-5.935h1.894a3.355 3.355 0 0 0 2.038-.537c.488-.403.75-1.017.705-1.648a1.715 1.715 0 0 0-.705-1.565 3.879 3.879 0 0 0-2.038-.446h-1.894v4.196zM94.51 57.516c-.011-.629.097-1.255.317-1.845.191-.51.477-.979.841-1.383a3.712 3.712 0 0 1 1.198-.87c.899-.388 1.919-.388 2.818 0 .406.166.767.425 1.053.756.292.37.51.79.644 1.24.158.525.235 1.07.228 1.618 0 .253-.017.506-.053.757h-5.653c.012.792.307 1.554.834 2.147a2.564 2.564 0 0 0 1.955.756 3.31 3.31 0 0 0 1.113-.182c.341-.122.669-.28.978-.468l.5.922c-.389.24-.8.443-1.227.605a4.22 4.22 0 0 1-1.516.257 4.008 4.008 0 0 1-1.576-.302 3.698 3.698 0 0 1-1.28-.855 3.99 3.99 0 0 1-.85-1.368 5.011 5.011 0 0 1-.325-1.785zm5.856-.635a3.088 3.088 0 0 0-.545-1.966 1.835 1.835 0 0 0-1.516-.68c-.295 0-.587.061-.856.181a2.5 2.5 0 0 0-.758.514c-.23.24-.414.52-.545.825-.15.359-.245.739-.28 1.126h4.5zM103.192 59.792c.344.297.723.551 1.13.756a3.09 3.09 0 0 0 1.333.28c.447.033.89-.102 1.243-.378.266-.236.417-.575.416-.93a.951.951 0 0 0-.174-.567 1.673 1.673 0 0 0-.44-.423 3.337 3.337 0 0 0-.613-.318l-.69-.272a14.642 14.642 0 0 1-.894-.356 3.654 3.654 0 0 1-.803-.484 2.504 2.504 0 0 1-.576-.657 1.766 1.766 0 0 1-.227-.915c0-.323.066-.642.197-.938.134-.289.328-.546.568-.756.269-.222.578-.391.91-.499a3.735 3.735 0 0 1 1.204-.181c.5-.008.994.088 1.455.28.415.163.803.387 1.152.665l-.675.9a4.38 4.38 0 0 0-.871-.56 2.52 2.52 0 0 0-1.023-.204 1.601 1.601 0 0 0-1.16.363c-.237.214-.373.52-.37.84-.004.18.05.357.151.506.113.152.254.28.417.378.187.116.385.215.59.295l.705.264.902.363c.294.117.57.275.818.469.243.19.444.426.592.696.164.306.245.65.234.998a2.43 2.43 0 0 1-.197.967c-.138.29-.337.549-.583.756a2.676 2.676 0 0 1-.97.545 4.1 4.1 0 0 1-1.318.196 4.502 4.502 0 0 1-1.705-.325 5.352 5.352 0 0 1-1.41-.824l.682-.93zM109.754 57.516c-.011-.63.1-1.256.326-1.845.19-.51.476-.979.841-1.383.343-.37.758-.666 1.22-.87.9-.388 1.92-.388 2.819 0 .404.168.765.427 1.053.756.291.37.51.79.644 1.24.212.778.272 1.59.174 2.39h-5.675a3.27 3.27 0 0 0 .833 2.147 2.564 2.564 0 0 0 1.955.756 3.31 3.31 0 0 0 1.114-.181 5.21 5.21 0 0 0 .97-.47l.5.923a6.825 6.825 0 0 1-1.22.605 4.236 4.236 0 0 1-1.515.257 4.061 4.061 0 0 1-1.576-.302 3.736 3.736 0 0 1-1.273-.855 4.12 4.12 0 0 1-.856-1.368 5.177 5.177 0 0 1-.334-1.8zm5.865-.635a3.088 3.088 0 0 0-.546-1.966 1.843 1.843 0 0 0-1.515-.68 2.072 2.072 0 0 0-.856.181 2.41 2.41 0 0 0-.758.514c-.23.24-.414.52-.546.825-.152.358-.25.738-.288 1.126h4.509zM118.013 59.512a2.313 2.313 0 0 1 1.228-2.102 10.178 10.178 0 0 1 3.925-1.028 4.293 4.293 0 0 0-.076-.756 1.835 1.835 0 0 0-.28-.673 1.514 1.514 0 0 0-.523-.469 1.746 1.746 0 0 0-.849-.181 3.378 3.378 0 0 0-1.364.272c-.389.173-.762.38-1.114.62l-.568-.975c.45-.297.927-.55 1.425-.756a4.843 4.843 0 0 1 1.864-.356 2.579 2.579 0 0 1 2.22.938c.493.738.735 1.616.69 2.503v5.126h-1.168l-.121-.998h-.038c-.393.33-.82.62-1.273.862-.458.23-.964.35-1.477.348a2.542 2.542 0 0 1-1.766-.62c-.49-.45-.759-1.09-.735-1.755zm1.394-.098c-.036.392.122.776.425 1.028.303.213.667.321 1.038.31.39.005.775-.086 1.121-.264.416-.228.8-.507 1.144-.832v-2.344c-.597.073-1.189.182-1.773.325-.406.1-.798.25-1.167.446-.259.14-.476.346-.628.598a1.45 1.45 0 0 0-.16.733zM126.992 53.328h1.167l.121 1.512h.053a3.85 3.85 0 0 1 1.046-1.255 2.155 2.155 0 0 1 1.333-.47c.307-.002.611.057.895.175l-.273 1.24a3.271 3.271 0 0 0-.38-.106 2.278 2.278 0 0 0-.431 0 1.874 1.874 0 0 0-1.114.423 3.425 3.425 0 0 0-1.008 1.513v5.368h-1.409v-8.4zM131.917 57.516a5.094 5.094 0 0 1 .326-1.86c.201-.513.5-.983.879-1.383a3.713 3.713 0 0 1 1.288-.862 4.061 4.061 0 0 1 1.515-.295c.492-.011.98.092 1.425.302.37.186.714.42 1.023.696l-.705.915a3.887 3.887 0 0 0-.758-.537 2.011 2.011 0 0 0-.909-.204 2.374 2.374 0 0 0-1.886.907c-.239.306-.421.652-.538 1.02a4.06 4.06 0 0 0-.205 1.316c-.005.444.061.886.197 1.309.107.365.285.707.523 1.005.217.28.498.505.818.658.33.153.69.23 1.053.227.38.009.754-.077 1.091-.25.317-.155.61-.353.872-.59l.636.93c-.377.32-.804.576-1.265.757-.46.195-.955.295-1.455.294a4.084 4.084 0 0 1-1.515-.294 3.395 3.395 0 0 1-1.25-.847 4.066 4.066 0 0 1-.826-1.376 5.283 5.283 0 0 1-.334-1.838zM140.176 49.441h1.417v3.335l-.053 1.716c.384-.366.805-.69 1.258-.968a2.823 2.823 0 0 1 1.515-.408 2.275 2.275 0 0 1 1.925.824c.457.73.672 1.584.614 2.442v5.293h-1.417V56.57a2.944 2.944 0 0 0-.38-1.709 1.38 1.38 0 0 0-1.204-.521c-.408-.01-.81.103-1.152.325-.41.282-.79.603-1.136.96v6.049h-1.387V49.44zM152.565 50.401h1.432v6.654a6.037 6.037 0 0 0 .204 1.701c.11.403.3.779.561 1.104.224.264.51.467.834.59.673.242 1.41.242 2.083 0 .328-.123.62-.326.849-.59.266-.323.46-.7.568-1.104a6.037 6.037 0 0 0 .205-1.7V50.4h1.379v6.624a7.357 7.357 0 0 1-.31 2.268 3.967 3.967 0 0 1-.857 1.512c-.35.38-.79.663-1.28.825a4.988 4.988 0 0 1-1.6.249 5.079 5.079 0 0 1-1.613-.25 3.092 3.092 0 0 1-1.296-.824 4.058 4.058 0 0 1-.849-1.512 7.138 7.138 0 0 1-.31-2.268V50.4zM163.468 50.401h1.432v5.656h.053l4.706-5.656h1.621l-3.538 4.295 4.084 6.986h-1.599l-3.38-5.867-1.947 2.268v3.577h-1.432z"/>
        <path fill="url(#a)" d="M0 .756h9.494V16.93H24.02V.756h9.555v42.009H24.02V25.239H9.494v17.526H0z"/>
        <path fill="url(#b)" d="M37.885.756H49.79c2.953-.04 5.894.374 8.721 1.225a17.482 17.482 0 0 1 6.653 3.765 16.548 16.548 0 0 1 4.266 6.48 26.412 26.412 0 0 1 1.515 9.345 26.91 26.91 0 0 1-1.515 9.406A16.766 16.766 0 0 1 58.73 41.48a25.896 25.896 0 0 1-8.426 1.285H37.885V.756zm11.32 34.342a15.807 15.807 0 0 0 4.91-.71 9.013 9.013 0 0 0 3.744-2.269 10.663 10.663 0 0 0 2.424-4.159 20.02 20.02 0 0 0 .872-6.373c.054-2.128-.24-4.25-.872-6.284a10.09 10.09 0 0 0-2.424-4.06 8.786 8.786 0 0 0-3.743-2.17 17.63 17.63 0 0 0-4.91-.643h-1.804v26.668h1.804z"/>
        <path fill="url(#c)" d="M96.987 42.765l-8.07-15.122H83.69v15.122h-9.494V.755h15.154a29.83 29.83 0 0 1 6.297.644 14.314 14.314 0 0 1 5.13 2.162 10.728 10.728 0 0 1 3.508 4 13.585 13.585 0 0 1 1.295 6.253 13.316 13.316 0 0 1-2.038 7.636 12.383 12.383 0 0 1-5.456 4.477l9.563 16.815-10.661.023zM83.689 20.082h4.91c2.49 0 4.395-.527 5.713-1.58a5.635 5.635 0 0 0 1.97-4.673c0-2.067-.657-3.506-1.97-4.317C93 8.7 91.094 8.302 88.6 8.317h-4.91v11.765z"/>
    </g>
</svg>
